<svg width="323" height="43" viewBox="0 0 323 43" fill="none" xmlns="http://www.w3.org/2000/svg">
<path d="M175.599 19.1254L174.958 17.5851H171.754L171.113 19.1254H170.216L172.907 12.5791H173.805L176.496 19.1254H175.599ZM173.677 14.6328C173.677 14.5045 173.292 13.606 173.292 13.4776C173.292 13.606 172.907 14.6328 172.907 14.6328L171.882 17.0716H174.702L173.677 14.6328Z" fill="#00378B"/>
<path d="M180.085 19.2538C178.163 19.2538 177.394 18.4836 177.137 17.5851C177.137 17.4568 177.137 17.4568 177.137 17.3284L178.163 17.0717C178.163 17.2001 178.163 17.3284 178.163 17.3284C178.419 17.9702 178.932 18.4836 180.213 18.4836C181.623 18.4836 182.136 17.9702 182.136 17.2001C182.136 16.5583 181.751 16.1732 180.726 16.0448C180.213 15.9165 179.957 15.9165 179.444 15.9165C178.163 15.7881 177.522 15.403 177.522 14.3762C177.522 13.3493 178.419 12.7075 180.085 12.7075C181.623 12.7075 182.392 13.221 182.777 13.9911V14.1195L181.88 14.3762V14.2478C181.495 13.7344 180.982 13.4777 180.085 13.4777C179.06 13.4777 178.419 13.8627 178.419 14.5045C178.419 15.018 178.675 15.2747 179.829 15.403C180.085 15.403 180.854 15.5314 181.111 15.5314C182.521 15.6598 183.161 16.3016 183.161 17.3284C182.905 18.4836 182.136 19.2538 180.085 19.2538Z" fill="#00378B"/>
<path d="M186.75 19.2538C184.828 19.2538 184.059 18.4836 183.802 17.5851C183.802 17.4568 183.802 17.4568 183.802 17.3284L184.828 17.0717C184.828 17.2001 184.828 17.3284 184.828 17.3284C185.084 17.9702 185.597 18.4836 186.878 18.4836C188.288 18.4836 188.801 17.9702 188.801 17.2001C188.801 16.5583 188.417 16.1732 187.391 16.0448C186.878 15.9165 186.622 15.9165 186.109 15.9165C184.828 15.7881 184.187 15.403 184.187 14.3762C184.187 13.3493 185.084 12.7075 186.75 12.7075C188.288 12.7075 189.057 13.221 189.442 13.9911V14.1195L188.545 14.3762V14.2478C188.16 13.7344 187.647 13.4777 186.75 13.4777C185.725 13.4777 185.084 13.8627 185.084 14.5045C185.084 15.018 185.34 15.2747 186.494 15.403C186.75 15.403 187.519 15.5314 187.776 15.5314C189.186 15.6598 189.826 16.3016 189.826 17.3284C189.698 18.4836 188.801 19.2538 186.75 19.2538Z" fill="#00378B"/>
<path d="M193.8 19.2537C192.006 19.2537 190.596 18.2269 190.596 15.9164C190.596 13.606 191.877 12.5791 193.8 12.5791C195.723 12.5791 197.004 13.606 197.004 15.9164C197.004 18.0985 195.723 19.2537 193.8 19.2537ZM193.8 13.3493C192.518 13.3493 191.493 14.1194 191.493 16.0448C191.493 17.8418 192.518 18.7403 193.8 18.7403C195.082 18.7403 196.107 17.9701 196.107 16.0448C196.107 14.1194 195.082 13.3493 193.8 13.3493Z" fill="#00378B"/>
<path d="M202.9 14.5045C202.516 13.7343 201.875 13.3492 201.106 13.3492C199.824 13.3492 198.927 14.1194 198.927 15.9164C198.927 17.8418 199.952 18.6119 201.106 18.6119C201.875 18.6119 202.644 18.2269 203.029 17.3284L203.926 17.5851C203.541 18.7403 202.644 19.3821 201.234 19.3821C199.568 19.3821 198.158 18.3552 198.158 16.0448C198.158 13.7343 199.568 12.8358 201.234 12.8358C202.516 12.8358 203.413 13.3492 203.926 14.5045H202.9Z" fill="#00378B"/>
<path d="M204.951 19.1254V12.7075H205.848V19.2538H204.951V19.1254Z" fill="#00378B"/>
<path d="M212.257 19.1254L211.616 17.5851H208.284L207.643 19.1254H206.746L209.437 12.5791H210.334L213.026 19.1254H212.257ZM210.334 14.6328C210.334 14.5045 209.95 13.606 209.95 13.4776C209.95 13.606 209.565 14.6328 209.565 14.6328L208.54 17.0716H211.36L210.334 14.6328Z" fill="#00378B"/>
<path d="M218.666 14.5045C218.281 13.7343 217.64 13.3492 216.871 13.3492C215.59 13.3492 214.692 14.1194 214.692 15.9164C214.692 17.8418 215.718 18.6119 216.871 18.6119C217.64 18.6119 218.409 18.2269 218.794 17.3284L219.691 17.5851C219.307 18.7403 218.409 19.3821 217 19.3821C215.333 19.3821 213.923 18.3552 213.923 16.0448C213.923 13.7343 215.333 12.8358 217 12.8358C218.281 12.8358 219.178 13.3492 219.691 14.5045H218.666ZM216.743 20.794C216.359 20.794 215.974 20.6657 215.846 20.6657L216.102 20.2806C216.23 20.409 216.487 20.4089 216.743 20.4089C217 20.4089 217.256 20.2806 217.256 20.1522C217.256 19.8955 217 19.8955 216.743 19.8955V19.1254H217.128V19.5104C217.512 19.5104 217.897 19.6388 217.897 20.1522C217.769 20.5373 217.384 20.794 216.743 20.794Z" fill="#00378B"/>
<path d="M225.587 19.1254L224.946 17.5851H221.614L220.973 19.1254H220.076L222.767 12.5791H223.665L226.356 19.1254H225.587ZM223.665 14.6328C223.665 14.5045 223.28 13.606 223.28 13.4776C223.28 13.606 222.896 14.6328 222.896 14.6328L221.87 17.0716H224.69L223.665 14.6328ZM223.921 12.4508C223.665 12.4508 223.536 12.3224 223.28 12.194C223.152 12.0657 223.024 12.0657 222.767 12.0657C222.511 12.0657 222.511 12.3224 222.511 12.4508H221.998C221.998 11.9373 222.255 11.5522 222.639 11.5522C222.896 11.5522 223.024 11.5522 223.28 11.809C223.408 11.9373 223.536 12.0657 223.793 12.0657C224.049 12.0657 224.049 11.809 224.049 11.6806H224.562C224.562 12.0657 224.305 12.4508 223.921 12.4508Z" fill="#00378B"/>
<path d="M230.33 19.2537C228.535 19.2537 227.125 18.2269 227.125 15.9164C227.125 13.606 228.407 12.5791 230.33 12.5791C232.252 12.5791 233.534 13.606 233.534 15.9164C233.534 18.0985 232.252 19.2537 230.33 19.2537ZM230.33 13.3493C229.048 13.3493 228.022 14.1194 228.022 16.0448C228.022 17.8418 229.048 18.7403 230.33 18.7403C231.611 18.7403 232.637 17.9701 232.637 16.0448C232.637 14.1194 231.611 13.3493 230.33 13.3493Z" fill="#00378B"/>
<path d="M239.943 19.1254C239.302 19.1254 237.251 19.1254 237.251 19.1254V12.7075C237.251 12.7075 239.43 12.7075 240.071 12.7075C242.25 12.7075 243.147 13.9911 243.147 16.0448C243.019 17.9702 242.25 19.1254 239.943 19.1254ZM239.815 13.3493C239.302 13.3493 237.892 13.3493 237.892 13.3493V18.4836C237.892 18.4836 239.302 18.4836 239.815 18.4836C241.353 18.4836 242.122 17.5851 242.122 15.9165C242.122 14.3762 241.353 13.3493 239.815 13.3493Z" fill="#00378B"/>
<path d="M247.249 19.2537C245.454 19.2537 244.044 18.2269 244.044 15.9164C244.044 13.606 245.326 12.5791 247.249 12.5791C249.171 12.5791 250.453 13.606 250.453 15.9164C250.453 18.0985 249.171 19.2537 247.249 19.2537ZM247.249 13.3493C245.967 13.3493 244.942 14.1194 244.942 16.0448C244.942 17.8418 245.967 18.7403 247.249 18.7403C248.531 18.7403 249.556 17.9701 249.556 16.0448C249.556 14.1194 248.531 13.3493 247.249 13.3493Z" fill="#00378B"/>
<path d="M257.246 16.3016H254.939V19.1254H254.042V12.7075C254.17 12.7075 257.246 12.7075 257.246 12.7075C258.656 12.7075 259.425 13.221 259.425 14.5045C259.297 15.7881 258.528 16.3016 257.246 16.3016ZM257.118 13.3493C257.118 13.3493 254.939 13.3493 254.811 13.3493V15.6598H256.99C257.887 15.6598 258.4 15.2747 258.4 14.5045C258.4 13.7344 258.015 13.3493 257.118 13.3493Z" fill="#00378B"/>
<path d="M260.579 19.1254V12.7075H265.706L265.449 13.3493H261.348V15.2747H264.809V15.9165H261.348V18.4836H265.449L265.706 19.1254H260.579Z" fill="#00378B"/>
<path d="M269.423 19.2538C267.5 19.2538 266.731 18.4836 266.475 17.5851C266.475 17.4568 266.475 17.4568 266.475 17.3284L267.5 17.0717C267.5 17.2001 267.5 17.3284 267.5 17.3284C267.757 17.9702 268.269 18.4836 269.551 18.4836C270.961 18.4836 271.474 17.9702 271.474 17.2001C271.474 16.5583 271.089 16.1732 270.064 16.0448C269.551 15.9165 269.295 15.9165 268.782 15.9165C267.5 15.7881 266.859 15.403 266.859 14.3762C266.859 13.3493 267.757 12.7075 269.423 12.7075C270.961 12.7075 271.73 13.221 272.115 13.9911V14.1195L271.217 14.3762V14.2478C270.833 13.7344 270.32 13.4777 269.423 13.4777C268.397 13.4777 267.757 13.8627 267.757 14.5045C267.757 15.018 268.013 15.2747 269.167 15.403C269.423 15.403 270.192 15.5314 270.448 15.5314C271.858 15.6598 272.499 16.3016 272.499 17.3284C272.371 18.4836 271.474 19.2538 269.423 19.2538Z" fill="#00378B"/>
<path d="M276.216 19.2538C274.293 19.2538 273.524 18.4836 273.268 17.5851C273.268 17.4568 273.268 17.4568 273.268 17.3284L274.293 17.0717C274.293 17.2001 274.293 17.3284 274.293 17.3284C274.55 17.9702 275.063 18.4836 276.344 18.4836C277.754 18.4836 278.267 17.9702 278.267 17.2001C278.267 16.5583 277.882 16.1732 276.857 16.0448C276.344 15.9165 276.088 15.9165 275.575 15.9165C274.293 15.7881 273.653 15.403 273.653 14.3762C273.653 13.3493 274.55 12.7075 276.216 12.7075C277.754 12.7075 278.523 13.221 278.908 13.9911V14.1195L278.011 14.3762V14.2478C277.626 13.7344 277.113 13.4777 276.216 13.4777C275.191 13.4777 274.55 13.8627 274.55 14.5045C274.55 15.018 274.806 15.2747 275.96 15.403C276.216 15.403 276.985 15.5314 277.242 15.5314C278.651 15.6598 279.292 16.3016 279.292 17.3284C279.036 18.4836 278.267 19.2538 276.216 19.2538Z" fill="#00378B"/>
<path d="M283.266 19.2537C281.471 19.2537 280.062 18.2269 280.062 15.9164C280.062 13.606 281.343 12.5791 283.266 12.5791C285.189 12.5791 286.47 13.606 286.47 15.9164C286.342 18.0985 285.06 19.2537 283.266 19.2537ZM283.266 13.3493C281.984 13.3493 280.959 14.1194 280.959 16.0448C280.959 17.8418 281.984 18.7403 283.266 18.7403C284.548 18.7403 285.573 17.9701 285.573 16.0448C285.445 14.1194 284.548 13.3493 283.266 13.3493Z" fill="#00378B"/>
<path d="M292.366 19.1254L291.725 17.5851H288.393L287.752 19.1254H286.855L289.546 12.5791H290.444L293.135 19.1254H292.366ZM290.444 14.6328C290.444 14.5045 290.059 13.606 290.059 13.4776C290.059 13.606 289.675 14.6328 289.675 14.6328L288.649 17.0716H291.469L290.444 14.6328Z" fill="#00378B"/>
<path d="M294.161 19.1254V12.7075H295.058V18.4836H298.903L299.159 19.1254H294.161Z" fill="#00378B"/>
<path d="M173.548 31.5762C172.907 31.5762 170.857 31.5762 170.857 31.5762V25.0299C170.857 25.0299 173.036 25.0299 173.677 25.0299C175.855 25.0299 176.753 26.3135 176.753 28.3672C176.625 30.421 175.984 31.5762 173.548 31.5762ZM173.548 25.8001C173.036 25.8001 171.626 25.8001 171.626 25.8001V30.9344C171.626 30.9344 173.036 30.9344 173.548 30.9344C175.086 30.9344 175.855 30.0359 175.855 28.3672C175.855 26.8269 175.086 25.8001 173.548 25.8001Z" fill="#00378B"/>
<path d="M182.264 31.5762L181.623 30.0359H178.291L177.65 31.5762H176.881L179.573 25.0299H180.47L183.161 31.5762H182.264ZM180.47 27.0836C180.47 26.9553 180.085 26.0568 180.085 25.9284C180.085 26.0568 179.701 27.0836 179.701 27.0836L178.675 29.5224H181.495L180.47 27.0836Z" fill="#00378B"/>
<path d="M191.108 26.9552C190.724 26.1851 190.083 25.6716 189.314 25.6716C188.032 25.6716 187.135 26.4418 187.135 28.2388C187.135 30.1642 188.16 30.9343 189.314 30.9343C190.083 30.9343 190.852 30.5492 191.236 29.6507L192.134 29.9075C191.749 31.0627 190.852 31.7045 189.442 31.7045C187.776 31.7045 186.366 30.6776 186.366 28.3672C186.366 26.0567 187.776 25.1582 189.442 25.1582C190.724 25.1582 191.621 25.6716 192.134 26.8269L191.108 26.9552Z" fill="#00378B"/>
<path d="M197.902 31.5762L197.261 30.0359H193.928L193.287 31.5762H192.39L195.082 25.0299H195.979L198.671 31.5762H197.902ZM196.107 27.0836C196.107 26.9553 195.723 26.0568 195.723 25.9284C195.723 26.0568 195.338 27.0836 195.338 27.0836L194.313 29.5224H197.133L196.107 27.0836Z" fill="#00378B"/>
<path d="M199.824 31.5762V25.0299H200.721V31.5762H199.824Z" fill="#00378B"/>
<path d="M206.489 31.5762L204.951 29.3941C204.951 29.3941 204.695 29.009 204.695 28.8807C204.695 28.8807 204.438 29.2657 204.438 29.3941L202.772 31.5762H201.875L204.31 28.2389L202.003 25.0299H203.029L204.567 27.0836C204.567 27.0836 204.823 27.4687 204.823 27.5971C204.823 27.4687 205.079 27.0836 205.079 27.0836L206.617 25.0299H207.515L205.079 28.2389L207.387 31.5762H206.489Z" fill="#00378B"/>
<path d="M213.282 31.5762L212.642 30.0359H209.309L208.668 31.5762H207.771L210.463 25.0299H211.36L214.052 31.5762H213.282ZM211.488 27.0836C211.488 26.9553 211.104 26.0568 211.104 25.9284C211.104 26.0568 210.719 27.0836 210.719 27.0836L209.694 29.5224H212.513L211.488 27.0836Z" fill="#00378B"/>
<path d="M217.512 31.5762V25.0299H222.639L222.383 25.6717H218.281V27.5971H221.742V28.2389H218.281V30.806H222.383L222.639 31.4478H217.512V31.5762Z" fill="#00378B"/>
<path d="M228.023 26.9552C227.638 26.1851 226.997 25.6716 226.228 25.6716C224.946 25.6716 224.049 26.4418 224.049 28.2388C224.049 30.1642 225.074 30.9343 226.228 30.9343C226.997 30.9343 227.766 30.5492 228.151 29.6507L229.048 29.9075C228.663 31.0627 227.766 31.7045 226.356 31.7045C224.69 31.7045 223.28 30.6776 223.28 28.3672C223.28 26.0567 224.69 25.1582 226.356 25.1582C227.638 25.1582 228.535 25.6716 229.048 26.8269L228.023 26.9552Z" fill="#00378B"/>
<path d="M233.021 31.7045C231.227 31.7045 229.817 30.6777 229.817 28.3672C229.817 26.0568 231.099 25.0299 233.021 25.0299C234.944 25.0299 236.226 26.0568 236.226 28.3672C236.226 30.5493 234.944 31.7045 233.021 31.7045ZM233.021 25.6717C231.74 25.6717 230.714 26.4418 230.714 28.3672C230.714 30.1642 231.74 31.0627 233.021 31.0627C234.303 31.0627 235.328 30.2926 235.328 28.3672C235.328 26.5702 234.431 25.6717 233.021 25.6717Z" fill="#00378B"/>
<path d="M242.122 31.5761L238.917 26.9552C238.917 26.8269 238.533 26.1851 238.533 26.1851C238.533 26.1851 238.533 26.8269 238.533 26.9552V31.7045H237.764V25.1582H238.789L242.122 29.7791C242.122 29.7791 242.506 30.4209 242.506 30.5492C242.506 30.4209 242.506 29.7791 242.506 29.7791C242.506 29.7791 242.506 25.5433 242.506 25.1582H243.404V31.7045H242.122V31.5761Z" fill="#00378B"/>
<path d="M247.633 31.7044C245.839 31.7044 244.429 30.6776 244.429 28.3671C244.429 26.0567 245.711 25.0298 247.633 25.0298C249.556 25.0298 250.838 26.0567 250.838 28.3671C250.71 30.5492 249.428 31.7044 247.633 31.7044ZM247.633 25.6716C246.352 25.6716 245.326 26.4417 245.326 28.3671C245.326 30.1641 246.352 31.0626 247.633 31.0626C248.915 31.0626 249.94 30.2925 249.94 28.3671C249.812 26.5701 248.915 25.6716 247.633 25.6716ZM248.146 24.9014L247.505 24.2596L246.864 24.9014H246.223L247.249 23.7462H247.633L248.659 24.9014H248.146Z" fill="#00378B"/>
<path d="M258.015 31.5762V27.212C258.015 27.0836 258.015 26.1851 258.015 26.0568C258.015 26.1851 257.631 26.9553 257.631 27.212L255.836 31.5762H255.067L253.273 27.212C253.273 27.0836 252.888 26.1851 252.888 26.0568C252.888 26.1851 252.888 27.0836 252.888 27.212V31.5762H252.119V25.0299H253.273L255.196 29.2657C255.196 29.3941 255.58 30.5493 255.58 30.5493C255.58 30.5493 255.965 29.3941 255.965 29.2657L257.759 25.0299H258.913V31.5762H258.015Z" fill="#00378B"/>
<path d="M260.451 31.5762V25.0299H261.348V31.5762H260.451Z" fill="#00378B"/>
<path d="M267.5 26.9552C267.116 26.1851 266.475 25.6716 265.706 25.6716C264.424 25.6716 263.527 26.4418 263.527 28.2388C263.527 30.1642 264.552 30.9343 265.706 30.9343C266.475 30.9343 267.244 30.5492 267.628 29.6507L268.526 29.9075C268.141 31.0627 267.244 31.7045 265.834 31.7045C264.168 31.7045 262.758 30.6776 262.758 28.3672C262.758 26.0567 264.168 25.1582 265.834 25.1582C267.116 25.1582 268.013 25.6716 268.526 26.8269L267.5 26.9552Z" fill="#00378B"/>
<path d="M274.422 31.5762L273.781 30.0359H270.448L269.807 31.5762H268.91L271.602 25.0299H272.499L275.191 31.5762H274.422ZM272.499 27.0836C272.499 26.9553 272.115 26.0568 272.115 25.9284C272.115 26.0568 271.73 27.0836 271.73 27.0836L270.705 29.5224H273.524L272.499 27.0836Z" fill="#00378B"/>
<path d="M283.394 25.8001H279.421V27.7254H282.753V28.3672H279.421V31.5762H278.523V25.0299H283.65L283.394 25.8001Z" fill="#00378B"/>
<path d="M284.676 31.5762V25.0299H289.803L289.546 25.6717H285.445V27.5971H288.906V28.2389H285.445V30.806H289.546L289.803 31.4478H284.676V31.5762Z" fill="#00378B"/>
<path d="M293.648 31.5762C293.007 31.5762 290.956 31.5762 290.956 31.5762V25.0299C290.956 25.0299 293.135 25.0299 293.776 25.0299C295.955 25.0299 296.852 26.3135 296.852 28.3672C296.852 30.421 296.083 31.5762 293.648 31.5762ZM293.648 25.8001C293.135 25.8001 291.725 25.8001 291.725 25.8001V30.9344C291.725 30.9344 293.135 30.9344 293.648 30.9344C295.186 30.9344 295.955 30.0359 295.955 28.3672C295.955 26.8269 295.186 25.8001 293.648 25.8001Z" fill="#00378B"/>
<path d="M298.134 31.5762V25.0299H303.261L303.005 25.6717H298.903V27.5971H302.364V28.2389H298.903V30.806H303.005L303.261 31.4478H298.134V31.5762Z" fill="#00378B"/>
<path d="M309.157 31.5762L307.363 28.3672H305.312V31.5762H304.415V25.0299C304.543 25.0299 307.875 25.0299 307.875 25.0299C309.285 25.0299 310.054 25.6717 310.054 26.6986C310.054 27.5971 309.542 28.2389 308.26 28.2389L310.054 31.5762H309.157ZM307.747 25.8001H305.312V27.7254H307.875C308.772 27.7254 309.157 27.3404 309.157 26.6986C309.157 26.1851 308.772 25.8001 307.747 25.8001Z" fill="#00378B"/>
<path d="M316.207 31.5762L315.566 30.0359H312.233L311.593 31.5762H310.695L313.387 25.0299H314.284L316.976 31.5762H316.207ZM314.284 27.0836C314.284 26.9553 313.9 26.0568 313.9 25.9284C313.9 26.0568 313.515 27.0836 313.515 27.0836L312.49 29.5224H315.31L314.284 27.0836Z" fill="#00378B"/>
<path d="M318.001 31.5762V25.0299H318.898V30.806H322.744L323 31.4478H318.001V31.5762Z" fill="#00378B"/>
<path d="M71.6495 23.8746L69.9832 19.2537L69.2142 17.3284L68.5733 19.2537L66.907 24.003L65.7535 27.2119L64.4717 30.806H59.7292L66.6507 12.5791H71.9058L78.8273 30.6776H74.0848L72.8031 27.0836L71.6495 23.8746Z" fill="#00378B"/>
<path d="M92.6702 23.4895C92.6702 23.4895 86.5179 23.4895 86.3897 23.4895V30.6776H81.6472V12.5791C81.7754 12.5791 92.1575 12.5791 92.1575 12.5791C96.2591 12.5791 98.4381 13.991 98.4381 17.9701C98.4381 21.8209 96.2591 23.4895 92.6702 23.4895ZM91.1321 15.9164H86.3897V20.2806C86.3897 20.2806 91.004 20.2806 91.1321 20.2806C92.9266 20.2806 93.5675 19.6388 93.5675 18.0985C93.5675 16.5582 92.7984 15.9164 91.1321 15.9164Z" fill="#00378B"/>
<path d="M112.794 18.8687C112.281 16.8149 111.256 15.7881 109.333 15.7881C106.77 15.7881 105.36 17.4567 105.36 21.5642C105.36 25.9284 107.026 27.4687 109.333 27.4687C111.256 27.4687 112.409 26.6985 112.922 24.1313L117.793 24.6448C117.024 28.6239 114.588 30.806 109.461 30.806C103.95 30.806 100.489 27.8537 100.489 21.4358C100.489 14.8896 104.078 12.3224 109.461 12.3224C114.46 12.3224 117.024 14.3761 117.793 18.2269L112.794 18.8687Z" fill="#00378B"/>
<path d="M121.253 30.6776V12.5791H136.506L135.481 15.9164H125.867V19.5104H134.583V22.8478H125.867V27.3403H135.737L137.019 30.806H121.253V30.6776Z" fill="#00378B"/>
<path d="M153.938 15.9164H144.453V19.5104H153.04V22.9761H144.453V30.806H139.71V12.5791H154.963L153.938 15.9164Z" fill="#00378B"/>
<path d="M27.4295 21.5641C27.4295 23.1044 26.1477 24.2597 24.7378 24.2597C23.1997 24.2597 22.0461 22.9761 22.0461 21.5641C22.0461 20.0238 23.3279 18.8686 24.7378 18.8686C26.2759 18.7402 27.4295 20.0238 27.4295 21.5641Z" fill="#00378B"/>
<path d="M35.3761 43L26.1475 26.9552H25.1221H24.3531H23.4559L14.0991 43H17.9444L24.7376 31.3194L31.5309 43H35.3761Z" fill="#00378B"/>
<path d="M11.4075 41.4597L20.7643 25.4149L20.2516 24.5164L19.8671 23.8746L19.3544 23.1045H0.897217L2.81984 26.4418H16.2782L9.61309 38.1224L11.4075 41.4597Z" fill="#EB690B"/>
<path d="M0.897217 20.0239H19.3544L19.8671 19.1254L20.2516 18.4836L20.7643 17.5851L11.4075 1.6687L9.61309 4.87766L16.2782 16.6866H2.81984L0.897217 20.0239Z" fill="#EB690B"/>
<path d="M38.0679 41.4597L28.8394 25.4149L29.3521 24.5164L29.7366 23.8746L30.1211 23.1045H48.7064L46.7838 26.4418H33.1973L39.9905 38.1224L38.0679 41.4597Z" fill="#EB690B"/>
<path d="M48.7064 20.0239H30.1211L29.7366 19.1254L29.3521 18.4836L28.8394 17.5851L38.0679 1.6687L39.9905 4.87766L33.1973 16.6866H46.7838L48.7064 20.0239Z" fill="#EB690B"/>
<path d="M14.0991 0.128358L23.4559 16.0448H24.3531H25.1221H26.1475L35.2479 0H31.4027L24.7376 11.6806L17.8162 0.128358H14.0991Z" fill="#EB690B"/>
</svg>
