<svg width="116" height="32" viewBox="0 0 116 32" fill="none" xmlns="http://www.w3.org/2000/svg">
<path d="M53.3206 17.7671L52.0806 14.3282L51.5083 12.8954L51.0313 14.3282L49.7913 17.8626L48.9328 20.2506L47.979 22.9253H44.4497L49.6005 9.36108H53.5114L58.6622 22.8297H55.1329L54.1791 20.1551L53.3206 17.7671Z" fill="#00378B"/>
<path d="M68.9639 17.4805C68.9639 17.4805 64.3854 17.4805 64.29 17.4805V22.8297H60.7607V9.36108C60.8561 9.36108 68.5824 9.36108 68.5824 9.36108C71.6347 9.36108 73.2563 10.4118 73.2563 13.373C73.2563 16.2387 71.6347 17.4805 68.9639 17.4805ZM67.8193 11.8447H64.29V15.0924C64.29 15.0924 67.7239 15.0924 67.8193 15.0924C69.1547 15.0924 69.6316 14.6148 69.6316 13.4685C69.6316 12.3223 69.0593 11.8447 67.8193 11.8447Z" fill="#00378B"/>
<path d="M83.9393 14.0418C83.5577 12.5134 82.7946 11.7493 81.3638 11.7493C79.4561 11.7493 78.4069 12.9911 78.4069 16.0478C78.4069 19.2955 79.6469 20.4418 81.3638 20.4418C82.7946 20.4418 83.6531 19.8687 84.0346 17.9582L87.6593 18.3403C87.087 21.3015 85.2747 22.9254 81.4592 22.9254C77.3576 22.9254 74.7822 20.7284 74.7822 15.9523C74.7822 11.0806 77.453 9.17017 81.4592 9.17017C85.1793 9.17017 87.087 10.6985 87.6593 13.5642L83.9393 14.0418Z" fill="#00378B"/>
<path d="M90.2349 22.8297V9.36108H101.586L100.823 11.8447H93.6687V14.5193H100.155V17.0029H93.6687V20.3462H101.013L101.967 22.9253H90.2349V22.8297Z" fill="#00378B"/>
<path d="M114.558 11.8447H107.499V14.5193H113.89V17.0984H107.499V22.9253H103.97V9.36108H115.321L114.558 11.8447Z" fill="#00378B"/>
<path d="M16.12 20.0598L13.7354 16.0479L16.12 11.9404H20.7939L23.0832 16.0479L20.7939 20.0598H16.12Z" fill="white"/>
<path d="M20.4125 16.0477C20.4125 17.194 19.4586 18.0537 18.4093 18.0537C17.2647 18.0537 16.4062 17.0985 16.4062 16.0477C16.4062 14.9015 17.3601 14.0418 18.4093 14.0418C19.554 13.9462 20.4125 14.9015 20.4125 16.0477Z" fill="#00378B"/>
<path d="M26.3267 31.9999L19.4589 20.0596H18.6959H18.1235H17.4558L10.4927 31.9999H13.3542L18.4097 23.3073L23.4651 31.9999H26.3267Z" fill="#00378B"/>
<path d="M8.48911 30.8538L15.4523 18.9135L15.0707 18.2448L14.7846 17.7672L14.403 17.1941H0.66748L2.09827 19.6777H12.1138L7.15371 28.3702L8.48911 30.8538Z" fill="#EB690B"/>
<path d="M0.66748 14.9014H14.403L14.7846 14.2327L15.0707 13.7551L15.4523 13.0865L8.48911 1.2417L7.15371 3.62976L12.1138 12.4178H2.09827L0.66748 14.9014Z" fill="#EB690B"/>
<path d="M28.3297 30.8538L21.4619 18.9135L21.8435 18.2448L22.1296 17.7672L22.4158 17.1941H36.2467L34.8159 19.6777H24.705L29.7605 28.3702L28.3297 30.8538Z" fill="#EB690B"/>
<path d="M36.2467 14.9014H22.4158L22.1296 14.2327L21.8435 13.7551L21.4619 13.0865L28.3297 1.2417L29.7605 3.62976L24.705 12.4178H34.8159L36.2467 14.9014Z" fill="#EB690B"/>
<path d="M10.4927 0.0955224L17.4558 11.9403H18.1235H18.6959H19.4589L26.2313 0H23.3698L18.4097 8.69254L13.2589 0.0955224H10.4927Z" fill="#EB690B"/>
</svg>
